<mxfile host="app.diagrams.net" modified="2023-06-28T21:10:08.278Z" agent="Mozilla/5.0 (X11; Linux x86_64) AppleWebKit/537.36 (KHTML, like Gecko) Chrome/114.0.0.0 Safari/537.36 Edg/114.0.1823.58" etag="CLhjG0FJVD0RG__i4sKF" version="21.5.2" type="github">
  <diagram name="Page-1" id="2nChqG5fqzvgx2G1RSnu">
    <mxGraphModel dx="1580" dy="784" grid="1" gridSize="10" guides="1" tooltips="1" connect="1" arrows="1" fold="1" page="1" pageScale="1" pageWidth="827" pageHeight="1169" math="0" shadow="0">
      <root>
        <mxCell id="0" />
        <mxCell id="1" parent="0" />
        <mxCell id="Cpxw7Wlcf-scyTmVpelU-1" value="" style="rounded=1;whiteSpace=wrap;html=1;" parent="1" vertex="1">
          <mxGeometry x="120" y="400" width="560" height="160" as="geometry" />
        </mxCell>
        <mxCell id="Cpxw7Wlcf-scyTmVpelU-2" value="" style="rounded=1;whiteSpace=wrap;html=1;" parent="1" vertex="1">
          <mxGeometry x="120" y="80" width="210" height="120" as="geometry" />
        </mxCell>
        <mxCell id="Cpxw7Wlcf-scyTmVpelU-4" value="Docker Container" style="text;html=1;strokeColor=none;fillColor=none;align=center;verticalAlign=middle;whiteSpace=wrap;rounded=0;" parent="1" vertex="1">
          <mxGeometry x="120" y="80" width="60" height="30" as="geometry" />
        </mxCell>
        <mxCell id="Cpxw7Wlcf-scyTmVpelU-5" value="Java App" style="rounded=1;whiteSpace=wrap;html=1;" parent="1" vertex="1">
          <mxGeometry x="160" y="120" width="130" height="70" as="geometry" />
        </mxCell>
        <mxCell id="Cpxw7Wlcf-scyTmVpelU-6" value="" style="rounded=1;whiteSpace=wrap;html=1;" parent="1" vertex="1">
          <mxGeometry x="310" y="120" width="20" height="60" as="geometry" />
        </mxCell>
        <mxCell id="Cpxw7Wlcf-scyTmVpelU-24" style="edgeStyle=orthogonalEdgeStyle;rounded=0;orthogonalLoop=1;jettySize=auto;html=1;" parent="1" source="Cpxw7Wlcf-scyTmVpelU-7" target="Cpxw7Wlcf-scyTmVpelU-20" edge="1">
          <mxGeometry relative="1" as="geometry">
            <Array as="points">
              <mxPoint x="360" y="150" />
            </Array>
          </mxGeometry>
        </mxCell>
        <mxCell id="Cpxw7Wlcf-scyTmVpelU-7" value="eth0" style="text;html=1;strokeColor=none;fillColor=none;align=center;verticalAlign=middle;whiteSpace=wrap;rounded=0;rotation=90;" parent="1" vertex="1">
          <mxGeometry x="290" y="135" width="60" height="30" as="geometry" />
        </mxCell>
        <mxCell id="Cpxw7Wlcf-scyTmVpelU-8" value="" style="rounded=1;whiteSpace=wrap;html=1;" parent="1" vertex="1">
          <mxGeometry x="470" y="80" width="210" height="120" as="geometry" />
        </mxCell>
        <mxCell id="Cpxw7Wlcf-scyTmVpelU-9" value="Docker Container" style="text;html=1;strokeColor=none;fillColor=none;align=center;verticalAlign=middle;whiteSpace=wrap;rounded=0;" parent="1" vertex="1">
          <mxGeometry x="470" y="80" width="60" height="30" as="geometry" />
        </mxCell>
        <mxCell id="Cpxw7Wlcf-scyTmVpelU-10" value="Java App" style="rounded=1;whiteSpace=wrap;html=1;" parent="1" vertex="1">
          <mxGeometry x="510" y="120" width="130" height="70" as="geometry" />
        </mxCell>
        <mxCell id="Cpxw7Wlcf-scyTmVpelU-11" value="" style="rounded=1;whiteSpace=wrap;html=1;" parent="1" vertex="1">
          <mxGeometry x="470" y="120" width="20" height="60" as="geometry" />
        </mxCell>
        <mxCell id="Cpxw7Wlcf-scyTmVpelU-25" style="edgeStyle=orthogonalEdgeStyle;rounded=0;orthogonalLoop=1;jettySize=auto;html=1;" parent="1" source="Cpxw7Wlcf-scyTmVpelU-12" target="Cpxw7Wlcf-scyTmVpelU-22" edge="1">
          <mxGeometry relative="1" as="geometry">
            <Array as="points">
              <mxPoint x="440" y="150" />
            </Array>
          </mxGeometry>
        </mxCell>
        <mxCell id="Cpxw7Wlcf-scyTmVpelU-12" value="eth0" style="text;html=1;strokeColor=none;fillColor=none;align=center;verticalAlign=middle;whiteSpace=wrap;rounded=0;rotation=90;" parent="1" vertex="1">
          <mxGeometry x="450" y="135" width="60" height="30" as="geometry" />
        </mxCell>
        <mxCell id="Cpxw7Wlcf-scyTmVpelU-27" style="edgeStyle=orthogonalEdgeStyle;rounded=0;orthogonalLoop=1;jettySize=auto;html=1;" parent="1" source="Cpxw7Wlcf-scyTmVpelU-15" target="Cpxw7Wlcf-scyTmVpelU-26" edge="1">
          <mxGeometry relative="1" as="geometry" />
        </mxCell>
        <mxCell id="Cpxw7Wlcf-scyTmVpelU-29" value="" style="edgeStyle=orthogonalEdgeStyle;rounded=0;orthogonalLoop=1;jettySize=auto;html=1;" parent="1" source="Cpxw7Wlcf-scyTmVpelU-15" target="Cpxw7Wlcf-scyTmVpelU-28" edge="1">
          <mxGeometry relative="1" as="geometry" />
        </mxCell>
        <mxCell id="Cpxw7Wlcf-scyTmVpelU-15" value="Docker Bridge" style="rounded=1;whiteSpace=wrap;html=1;movable=1;resizable=1;rotatable=1;deletable=1;editable=1;locked=0;connectable=1;" parent="1" vertex="1">
          <mxGeometry x="280" y="240" width="240" height="80" as="geometry" />
        </mxCell>
        <mxCell id="Cpxw7Wlcf-scyTmVpelU-19" value="" style="rounded=1;whiteSpace=wrap;html=1;rotation=-90;movable=1;resizable=1;rotatable=1;deletable=1;editable=1;locked=0;connectable=1;" parent="1" vertex="1">
          <mxGeometry x="350" y="220" width="20" height="60" as="geometry" />
        </mxCell>
        <mxCell id="Cpxw7Wlcf-scyTmVpelU-20" value="veth0" style="text;html=1;strokeColor=none;fillColor=none;align=center;verticalAlign=middle;whiteSpace=wrap;rounded=0;rotation=0;movable=1;resizable=1;rotatable=1;deletable=1;editable=1;locked=0;connectable=1;" parent="1" vertex="1">
          <mxGeometry x="330" y="235" width="60" height="30" as="geometry" />
        </mxCell>
        <mxCell id="Cpxw7Wlcf-scyTmVpelU-21" value="" style="rounded=1;whiteSpace=wrap;html=1;rotation=-90;movable=1;resizable=1;rotatable=1;deletable=1;editable=1;locked=0;connectable=1;" parent="1" vertex="1">
          <mxGeometry x="430" y="220" width="20" height="60" as="geometry" />
        </mxCell>
        <mxCell id="Cpxw7Wlcf-scyTmVpelU-22" value="veth0" style="text;html=1;strokeColor=none;fillColor=none;align=center;verticalAlign=middle;whiteSpace=wrap;rounded=0;rotation=0;movable=1;resizable=1;rotatable=1;deletable=1;editable=1;locked=0;connectable=1;" parent="1" vertex="1">
          <mxGeometry x="410" y="235" width="60" height="30" as="geometry" />
        </mxCell>
        <mxCell id="Cpxw7Wlcf-scyTmVpelU-26" value="br-&amp;lt;netrowk-id&amp;gt;" style="text;html=1;strokeColor=default;fillColor=none;align=center;verticalAlign=middle;whiteSpace=wrap;rounded=0;rotation=0;movable=1;resizable=1;rotatable=1;deletable=1;editable=1;locked=0;connectable=1;" parent="1" vertex="1">
          <mxGeometry x="335" y="400" width="130" height="30" as="geometry" />
        </mxCell>
        <mxCell id="Cpxw7Wlcf-scyTmVpelU-28" value="Forwarding Rules" style="rounded=1;whiteSpace=wrap;html=1;" parent="1" vertex="1">
          <mxGeometry x="560" y="250" width="120" height="60" as="geometry" />
        </mxCell>
        <mxCell id="Cpxw7Wlcf-scyTmVpelU-32" style="edgeStyle=orthogonalEdgeStyle;rounded=0;orthogonalLoop=1;jettySize=auto;html=1;entryX=0;entryY=0.5;entryDx=0;entryDy=0;" parent="1" target="Cpxw7Wlcf-scyTmVpelU-26" edge="1">
          <mxGeometry relative="1" as="geometry">
            <mxPoint x="280" y="480" as="sourcePoint" />
          </mxGeometry>
        </mxCell>
        <mxCell id="Cpxw7Wlcf-scyTmVpelU-31" value="Host" style="text;html=1;strokeColor=none;fillColor=none;align=center;verticalAlign=middle;whiteSpace=wrap;rounded=0;" parent="1" vertex="1">
          <mxGeometry x="120" y="400" width="90" height="50" as="geometry" />
        </mxCell>
        <mxCell id="Cpxw7Wlcf-scyTmVpelU-36" style="edgeStyle=orthogonalEdgeStyle;rounded=0;orthogonalLoop=1;jettySize=auto;html=1;entryX=0.5;entryY=0;entryDx=0;entryDy=0;" parent="1" source="Cpxw7Wlcf-scyTmVpelU-33" target="Cpxw7Wlcf-scyTmVpelU-34" edge="1">
          <mxGeometry relative="1" as="geometry" />
        </mxCell>
        <mxCell id="Cpxw7Wlcf-scyTmVpelU-33" value="Monitoring App" style="rounded=1;whiteSpace=wrap;html=1;" parent="1" vertex="1">
          <mxGeometry x="150" y="460" width="140" height="60" as="geometry" />
        </mxCell>
        <mxCell id="Cpxw7Wlcf-scyTmVpelU-39" style="edgeStyle=orthogonalEdgeStyle;rounded=0;orthogonalLoop=1;jettySize=auto;html=1;" parent="1" source="Cpxw7Wlcf-scyTmVpelU-34" target="Cpxw7Wlcf-scyTmVpelU-37" edge="1">
          <mxGeometry relative="1" as="geometry" />
        </mxCell>
        <mxCell id="Cpxw7Wlcf-scyTmVpelU-43" style="edgeStyle=orthogonalEdgeStyle;rounded=0;orthogonalLoop=1;jettySize=auto;html=1;exitX=0.15;exitY=0.95;exitDx=0;exitDy=0;exitPerimeter=0;entryX=0.25;entryY=0;entryDx=0;entryDy=0;" parent="1" source="Cpxw7Wlcf-scyTmVpelU-34" target="Cpxw7Wlcf-scyTmVpelU-40" edge="1">
          <mxGeometry relative="1" as="geometry" />
        </mxCell>
        <mxCell id="Cpxw7Wlcf-scyTmVpelU-44" value="Read&lt;br&gt;Monitoring&lt;br&gt;Data" style="edgeLabel;html=1;align=center;verticalAlign=middle;resizable=0;points=[];" parent="Cpxw7Wlcf-scyTmVpelU-43" vertex="1" connectable="0">
          <mxGeometry x="-0.5673" relative="1" as="geometry">
            <mxPoint x="-32" y="12" as="offset" />
          </mxGeometry>
        </mxCell>
        <mxCell id="Cpxw7Wlcf-scyTmVpelU-34" value="Kafka" style="shape=datastore;whiteSpace=wrap;html=1;" parent="1" vertex="1">
          <mxGeometry x="180" y="630" width="80" height="90" as="geometry" />
        </mxCell>
        <mxCell id="Cpxw7Wlcf-scyTmVpelU-38" style="edgeStyle=orthogonalEdgeStyle;rounded=0;orthogonalLoop=1;jettySize=auto;html=1;entryX=0.5;entryY=1;entryDx=0;entryDy=0;" parent="1" source="Cpxw7Wlcf-scyTmVpelU-37" target="Cpxw7Wlcf-scyTmVpelU-28" edge="1">
          <mxGeometry relative="1" as="geometry">
            <Array as="points">
              <mxPoint x="575" y="370" />
              <mxPoint x="620" y="370" />
            </Array>
          </mxGeometry>
        </mxCell>
        <mxCell id="Cpxw7Wlcf-scyTmVpelU-37" value="Forwarding Rules Manager" style="rounded=1;whiteSpace=wrap;html=1;" parent="1" vertex="1">
          <mxGeometry x="487" y="460" width="176" height="60" as="geometry" />
        </mxCell>
        <mxCell id="Cpxw7Wlcf-scyTmVpelU-45" style="edgeStyle=orthogonalEdgeStyle;rounded=0;orthogonalLoop=1;jettySize=auto;html=1;exitX=0.75;exitY=0;exitDx=0;exitDy=0;entryX=0.85;entryY=0.95;entryDx=0;entryDy=0;entryPerimeter=0;" parent="1" source="Cpxw7Wlcf-scyTmVpelU-40" target="Cpxw7Wlcf-scyTmVpelU-34" edge="1">
          <mxGeometry relative="1" as="geometry" />
        </mxCell>
        <mxCell id="Cpxw7Wlcf-scyTmVpelU-46" value="Notifies&lt;br&gt;About&lt;br&gt;Forwarding&lt;br&gt;Rules&lt;br&gt;Change" style="edgeLabel;html=1;align=center;verticalAlign=middle;resizable=0;points=[];" parent="Cpxw7Wlcf-scyTmVpelU-45" vertex="1" connectable="0">
          <mxGeometry x="0.5855" y="1" relative="1" as="geometry">
            <mxPoint x="63" y="97" as="offset" />
          </mxGeometry>
        </mxCell>
        <mxCell id="Cpxw7Wlcf-scyTmVpelU-50" style="edgeStyle=orthogonalEdgeStyle;rounded=0;orthogonalLoop=1;jettySize=auto;html=1;exitX=1;exitY=0.25;exitDx=0;exitDy=0;entryX=0;entryY=0.25;entryDx=0;entryDy=0;" parent="1" source="Cpxw7Wlcf-scyTmVpelU-40" target="Cpxw7Wlcf-scyTmVpelU-49" edge="1">
          <mxGeometry relative="1" as="geometry" />
        </mxCell>
        <mxCell id="Cpxw7Wlcf-scyTmVpelU-51" value="Monitoring Data" style="edgeLabel;html=1;align=center;verticalAlign=middle;resizable=0;points=[];" parent="Cpxw7Wlcf-scyTmVpelU-50" vertex="1" connectable="0">
          <mxGeometry x="-0.2182" y="-1" relative="1" as="geometry">
            <mxPoint x="7" y="-11" as="offset" />
          </mxGeometry>
        </mxCell>
        <mxCell id="Cpxw7Wlcf-scyTmVpelU-58" style="edgeStyle=orthogonalEdgeStyle;rounded=0;orthogonalLoop=1;jettySize=auto;html=1;exitX=0.25;exitY=1;exitDx=0;exitDy=0;entryX=0.5;entryY=0;entryDx=0;entryDy=0;entryPerimeter=0;" parent="1" source="Cpxw7Wlcf-scyTmVpelU-40" target="Cpxw7Wlcf-scyTmVpelU-54" edge="1">
          <mxGeometry relative="1" as="geometry" />
        </mxCell>
        <mxCell id="Cpxw7Wlcf-scyTmVpelU-59" style="edgeStyle=orthogonalEdgeStyle;rounded=0;orthogonalLoop=1;jettySize=auto;html=1;exitX=0.5;exitY=1;exitDx=0;exitDy=0;entryX=0.5;entryY=0;entryDx=0;entryDy=0;entryPerimeter=0;" parent="1" source="Cpxw7Wlcf-scyTmVpelU-40" target="Cpxw7Wlcf-scyTmVpelU-55" edge="1">
          <mxGeometry relative="1" as="geometry" />
        </mxCell>
        <mxCell id="Cpxw7Wlcf-scyTmVpelU-60" style="edgeStyle=orthogonalEdgeStyle;rounded=0;orthogonalLoop=1;jettySize=auto;html=1;exitX=0.75;exitY=1;exitDx=0;exitDy=0;entryX=0.5;entryY=0;entryDx=0;entryDy=0;entryPerimeter=0;" parent="1" source="Cpxw7Wlcf-scyTmVpelU-40" target="Cpxw7Wlcf-scyTmVpelU-56" edge="1">
          <mxGeometry relative="1" as="geometry" />
        </mxCell>
        <mxCell id="Cpxw7Wlcf-scyTmVpelU-40" value="Backend" style="rounded=1;whiteSpace=wrap;html=1;" parent="1" vertex="1">
          <mxGeometry x="120" y="920" width="210" height="120" as="geometry" />
        </mxCell>
        <mxCell id="Cpxw7Wlcf-scyTmVpelU-52" style="edgeStyle=orthogonalEdgeStyle;rounded=0;orthogonalLoop=1;jettySize=auto;html=1;" parent="1" source="Cpxw7Wlcf-scyTmVpelU-49" target="Cpxw7Wlcf-scyTmVpelU-40" edge="1">
          <mxGeometry relative="1" as="geometry" />
        </mxCell>
        <mxCell id="Cpxw7Wlcf-scyTmVpelU-53" value="Update Rules" style="edgeLabel;html=1;align=center;verticalAlign=middle;resizable=0;points=[];" parent="Cpxw7Wlcf-scyTmVpelU-52" vertex="1" connectable="0">
          <mxGeometry x="0.2727" relative="1" as="geometry">
            <mxPoint x="10" y="-10" as="offset" />
          </mxGeometry>
        </mxCell>
        <mxCell id="Cpxw7Wlcf-scyTmVpelU-49" value="Web App" style="rounded=1;whiteSpace=wrap;html=1;" parent="1" vertex="1">
          <mxGeometry x="440" y="920" width="240" height="120" as="geometry" />
        </mxCell>
        <mxCell id="Cpxw7Wlcf-scyTmVpelU-54" value="Report" style="whiteSpace=wrap;html=1;shape=mxgraph.basic.document" parent="1" vertex="1">
          <mxGeometry x="125" y="1080" width="50" height="70" as="geometry" />
        </mxCell>
        <mxCell id="Cpxw7Wlcf-scyTmVpelU-55" value="Configuration" style="whiteSpace=wrap;html=1;shape=mxgraph.basic.document" parent="1" vertex="1">
          <mxGeometry x="180" y="1080" width="90" height="70" as="geometry" />
        </mxCell>
        <mxCell id="Cpxw7Wlcf-scyTmVpelU-56" value="Pull&lt;br&gt;Request" style="whiteSpace=wrap;html=1;shape=mxgraph.basic.document" parent="1" vertex="1">
          <mxGeometry x="275" y="1080" width="55" height="70" as="geometry" />
        </mxCell>
      </root>
    </mxGraphModel>
  </diagram>
</mxfile>
